<svg data-v-423bf9ae="" xmlns="http://www.w3.org/2000/svg" viewBox="0 0 593 90" class="iconLeft"><!----><!----><!----><g data-v-423bf9ae="" id="597991e6-b022-4871-843d-aef7d415e20e" fill="white" transform="matrix(5.75035558952365,0,0,5.75035558952365,108.8618986881678,-12.520409435565867)"><path d="M7.21 5.28L0.46 5.28C0 5.28 0.20 6.52 0.64 6.72C1.30 6.45 2.16 6.12 3.00 5.96L3.01 14.35C3.01 14.88 3.40 15.22 3.96 15.22C4.42 15.22 4.76 14.98 4.91 14.84C4.69 14.29 4.66 13.68 4.66 13.13L4.65 5.96C5.49 6.12 6.37 6.45 7.01 6.72C7.48 6.52 7.67 5.28 7.21 5.28ZM14.69 13.13L14.69 10.49C14.69 8.60 13.97 7.64 12.43 7.64C11.37 7.64 10.64 8.18 10.25 9.11L10.25 8.12C10.26 6.85 10.30 5.91 10.54 5.14C10.39 5.01 9.94 4.75 9.44 4.79C8.97 4.82 8.64 5.08 8.65 5.64L8.65 14.27C8.65 14.85 9.07 15.22 9.60 15.22C10.07 15.22 10.39 14.99 10.54 14.85C10.26 14.18 10.26 13.68 10.26 11.70C10.26 9.45 11.02 8.43 11.90 8.43C12.81 8.43 13.06 9.25 13.06 10.72L13.06 14.35C13.06 14.88 13.45 15.22 14 15.22C14.42 15.22 14.71 15.04 14.92 14.84C14.73 14.29 14.69 13.58 14.69 13.13ZM22.09 13.06C21.78 13.72 21.07 14.17 20.05 14.17C18.86 14.17 18.05 13.57 17.92 11.79C18.41 11.84 18.87 11.86 19.33 11.86C21.18 11.86 22.40 11.12 22.40 9.73C22.40 8.34 21.20 7.64 19.63 7.64C17.36 7.64 16.14 9.09 16.14 11.42C16.14 13.86 17.49 15.22 19.60 15.22C20.87 15.22 21.85 14.73 22.20 13.83C22.41 13.34 22.27 13.15 22.09 13.06ZM19.57 8.23C20.10 8.23 20.64 8.48 20.64 9.46C20.64 11.03 19.45 11.24 18.45 11.23C18.26 11.23 18.06 11.21 17.89 11.20C17.89 9.32 18.52 8.23 19.57 8.23ZM25.05 15.02L27.03 15.02C29.71 15.02 31.28 13.54 31.28 10.04C31.28 6.76 29.71 5.14 26.95 5.14C26.04 5.14 24.65 5.15 23.88 5.25C24.09 5.80 24.07 6.64 24.07 7.18L24.08 14.17C24.08 14.70 24.44 15.02 25.05 15.02ZM25.73 14.41L25.72 5.75L26.95 5.75C28.63 5.75 29.44 7.08 29.44 10.15C29.44 13.26 28.63 14.41 26.95 14.41ZM38.44 13.06C38.14 13.72 37.42 14.17 36.40 14.17C35.21 14.17 34.40 13.57 34.27 11.79C34.76 11.84 35.22 11.86 35.69 11.86C37.53 11.86 38.75 11.12 38.75 9.73C38.75 8.34 37.55 7.64 35.98 7.64C33.71 7.64 32.49 9.09 32.49 11.42C32.49 13.86 33.84 15.22 35.95 15.22C37.23 15.22 38.21 14.73 38.56 13.83C38.77 13.34 38.63 13.15 38.44 13.06ZM35.92 8.23C36.46 8.23 36.99 8.48 36.99 9.46C36.99 11.03 35.80 11.24 34.80 11.23C34.61 11.23 34.41 11.21 34.24 11.20C34.24 9.32 34.87 8.23 35.92 8.23ZM45.16 7.69C44.77 7.69 44.55 7.76 44.32 7.85C44.39 7.95 44.42 8.08 44.42 8.27C44.42 8.47 44.38 8.65 44.35 8.85L42.90 14.20L41.24 8.33C41.15 7.90 40.78 7.69 40.28 7.69C39.77 7.69 39.49 7.88 39.34 8.06C39.55 8.27 39.68 8.67 39.75 8.88L41.73 14.66C41.87 15.08 42.22 15.22 42.62 15.22C42.98 15.22 43.34 15.13 43.72 14.97L45.89 9.25C46.02 8.95 46.06 8.61 46.06 8.39C46.07 7.90 45.79 7.69 45.16 7.69ZM54.39 14.01L51.83 5.63C51.70 5.19 51.31 5.07 50.90 5.07C50.44 5.07 49.99 5.15 49.52 5.31L46.70 13.64C46.61 13.97 46.54 14.28 46.54 14.50C46.54 14.99 46.83 15.20 47.46 15.20C47.88 15.20 48.13 15.12 48.37 15.02C48.29 14.94 48.24 14.81 48.24 14.62C48.24 14.43 48.29 14.24 48.33 14.04L48.85 12.10L52.14 12.10L52.82 14.56C52.92 14.98 53.33 15.20 53.84 15.20C54.38 15.20 54.66 15.01 54.81 14.83C54.60 14.60 54.46 14.24 54.39 14.01ZM49.10 11.19L50.47 6.06L51.88 11.19ZM59.16 7.64C58.25 7.64 57.64 8.15 57.32 9.18C57.26 8.15 56.77 7.64 56.00 7.64C55.34 7.64 54.96 8.01 54.96 8.51C54.96 8.71 55.02 8.88 55.13 9.06C55.23 8.90 55.40 8.88 55.51 8.88C55.75 8.88 55.87 9.07 55.87 9.60L55.87 14.22C55.87 14.83 56.32 15.16 56.83 15.16C57.30 15.16 57.62 14.94 57.78 14.81C57.50 14.13 57.50 13.64 57.50 11.70C57.50 9.44 58.02 8.43 58.70 8.43C59.14 8.43 59.36 8.69 59.36 9.20C59.36 9.56 59.32 9.79 59.11 10.14C59.25 10.30 59.51 10.40 59.85 10.39C60.44 10.37 60.90 9.88 60.90 9.20C60.90 8.22 60.17 7.64 59.16 7.64ZM67.41 13.06C67.10 13.72 66.39 14.17 65.37 14.17C64.18 14.17 63.36 13.57 63.24 11.79C63.73 11.84 64.19 11.86 64.65 11.86C66.50 11.86 67.72 11.12 67.72 9.73C67.72 8.34 66.51 7.64 64.95 7.64C62.68 7.64 61.46 9.09 61.46 11.42C61.46 13.86 62.80 15.22 64.92 15.22C66.19 15.22 67.17 14.73 67.52 13.83C67.73 13.34 67.59 13.15 67.41 13.06ZM64.89 8.23C65.42 8.23 65.95 8.48 65.95 9.46C65.95 11.03 64.76 11.24 63.77 11.23C63.57 11.23 63.38 11.21 63.21 11.20C63.21 9.32 63.84 8.23 64.89 8.23ZM75.45 13.13L75.45 10.49C75.45 8.60 74.73 7.64 73.19 7.64C72.02 7.64 71.22 8.25 70.84 9.32C70.84 8.19 70.34 7.64 69.52 7.64C68.87 7.64 68.49 8.01 68.49 8.51C68.49 8.71 68.54 8.88 68.66 9.06C68.75 8.90 68.92 8.88 69.03 8.88C69.27 8.88 69.38 9.07 69.40 9.60L69.40 14.27C69.40 14.85 69.80 15.22 70.36 15.22C70.81 15.22 71.15 14.99 71.30 14.85C71.02 14.18 71.02 13.68 71.02 11.70C71.02 9.48 71.78 8.48 72.66 8.48C73.57 8.48 73.81 9.30 73.82 10.72L73.82 14.35C73.82 14.88 74.23 15.22 74.76 15.22C75.17 15.22 75.47 15.05 75.71 14.84C75.49 14.29 75.46 13.58 75.45 13.13ZM83.97 13.72C83.87 13.87 83.68 13.93 83.57 13.93C83.24 13.93 83.09 13.69 83.09 13.19L83.09 10.67C83.09 8.53 82.17 7.64 80.14 7.64C78.37 7.64 77.24 8.23 77.24 9.35C77.24 10.05 77.73 10.63 78.54 10.63C78.88 10.63 79.24 10.53 79.44 10.32C79.03 10.11 78.90 9.67 78.90 9.30C78.90 8.50 79.44 8.22 80.02 8.22C81.06 8.22 81.41 9.02 81.41 10.57L81.41 10.92C80.82 10.92 80.08 10.98 79.32 11.19C78.09 11.54 76.92 12.25 76.92 13.52C76.92 14.57 77.66 15.16 78.72 15.16C80.01 15.16 80.99 14.36 81.51 13.22C81.56 14.64 82.07 15.16 82.94 15.16C83.66 15.16 84.14 14.76 84.14 14.25C84.14 14.10 84.10 13.89 83.97 13.72ZM79.56 14.08C78.95 14.14 78.71 13.65 78.71 13.13C78.71 12.52 79.10 12.04 79.67 11.77C80.16 11.54 80.88 11.47 81.45 11.48C81.45 12.89 80.40 14.03 79.56 14.08Z"></path></g><!----><g data-v-423bf9ae="" id="81190e0b-2c80-439c-bdc9-12cc9ed445b7" transform="matrix(2.8125,0,0,2.8125,0,0)" stroke="none" fill="white"><circle cx="16" cy="16.021" r="8.066"></circle><path d="M32 0H0v32h32V0zM16 26.086c-5.551 0-10.066-4.516-10.066-10.065 0-5.55 4.516-10.066 10.066-10.066 5.55 0 10.065 4.516 10.065 10.066.001 5.55-4.515 10.065-10.065 10.065z"></path></g><!----></svg>